<svg width="46" height="45" viewBox="0 0 46 45" fill="none" xmlns="http://www.w3.org/2000/svg">
<path d="M23 0C16.8941 0 16.1263 0.028125 13.7272 0.135C11.3281 0.2475 9.69406 0.624375 8.2625 1.18125C6.76089 1.74605 5.40076 2.63201 4.27719 3.77719C3.13271 4.90133 2.24686 6.2613 1.68125 7.7625C1.12437 9.19125 0.744688 10.8281 0.635 13.2187C0.528125 15.6234 0.5 16.3884 0.5 22.5028C0.5 28.6116 0.528125 29.3766 0.635 31.7756C0.7475 34.1719 1.12437 35.8059 1.68125 37.2375C2.25781 38.7169 3.02563 39.9712 4.27719 41.2228C5.52594 42.4744 6.78031 43.245 8.25969 43.8187C9.69406 44.3756 11.3253 44.7553 13.7216 44.865C16.1234 44.9719 16.8884 45 23 45C29.1116 45 29.8738 44.9719 32.2756 44.865C34.6691 44.7525 36.3088 44.3756 37.7403 43.8187C39.241 43.2537 40.6001 42.3677 41.7228 41.2228C42.9744 39.9712 43.7422 38.7169 44.3187 37.2375C44.8728 35.8059 45.2525 34.1719 45.365 31.7756C45.4719 29.3766 45.5 28.6116 45.5 22.5C45.5 16.3884 45.4719 15.6234 45.365 13.2216C45.2525 10.8281 44.8728 9.19125 44.3187 7.7625C43.7532 6.26126 42.8674 4.90128 41.7228 3.77719C40.5996 2.63159 39.2394 1.74557 37.7375 1.18125C36.3031 0.624375 34.6662 0.244688 32.2728 0.135C29.8709 0.028125 29.1088 0 22.9944 0H23.0028H23ZM20.9834 4.05563H23.0028C29.0103 4.05563 29.7219 4.07531 32.0928 4.185C34.2866 4.28344 35.4791 4.65188 36.2722 4.95844C37.3212 5.36625 38.0722 5.85562 38.8597 6.64312C39.6472 7.43062 40.1338 8.17875 40.5416 9.23063C40.8509 10.0209 41.2166 11.2134 41.315 13.4072C41.4247 15.7781 41.4472 16.4897 41.4472 22.4944C41.4472 28.4991 41.4247 29.2134 41.315 31.5844C41.2166 33.7781 40.8481 34.9678 40.5416 35.7609C40.1808 36.7379 39.6051 37.6212 38.8569 38.3456C38.0694 39.1331 37.3213 39.6197 36.2694 40.0275C35.4819 40.3369 34.2894 40.7025 32.0928 40.8038C29.7219 40.9106 29.0103 40.9359 23.0028 40.9359C16.9953 40.9359 16.2809 40.9106 13.91 40.8038C11.7163 40.7025 10.5266 40.3369 9.73344 40.0275C8.75609 39.6673 7.87192 39.0926 7.14594 38.3456C6.39711 37.6201 5.82047 36.7359 5.45844 35.7581C5.15188 34.9678 4.78344 33.7753 4.685 31.5816C4.57813 29.2106 4.55563 28.4991 4.55563 22.4887C4.55563 16.4812 4.57813 15.7725 4.685 13.4016C4.78625 11.2078 5.15188 10.0153 5.46125 9.22219C5.86906 8.17313 6.35844 7.42219 7.14594 6.63469C7.93344 5.84719 8.68156 5.36063 9.73344 4.95281C10.5266 4.64344 11.7163 4.27781 13.91 4.17656C15.9856 4.08094 16.79 4.05281 20.9834 4.05V4.05563ZM35.0122 7.79062C34.6576 7.79062 34.3065 7.86046 33.9789 7.99615C33.6514 8.13184 33.3537 8.33072 33.103 8.58144C32.8523 8.83215 32.6534 9.1298 32.5177 9.45738C32.382 9.78496 32.3122 10.1361 32.3122 10.4906C32.3122 10.8452 32.382 11.1963 32.5177 11.5239C32.6534 11.8514 32.8523 12.1491 33.103 12.3998C33.3537 12.6505 33.6514 12.8494 33.9789 12.9851C34.3065 13.1208 34.6576 13.1906 35.0122 13.1906C35.7283 13.1906 36.415 12.9062 36.9214 12.3998C37.4277 11.8935 37.7122 11.2067 37.7122 10.4906C37.7122 9.77454 37.4277 9.08778 36.9214 8.58144C36.415 8.07509 35.7283 7.79062 35.0122 7.79062ZM23.0028 10.9462C21.4702 10.9223 19.9481 11.2036 18.5253 11.7735C17.1024 12.3435 15.8071 13.1908 14.7148 14.2662C13.6225 15.3416 12.7551 16.6235 12.163 18.0373C11.5709 19.4511 11.266 20.9686 11.266 22.5014C11.266 24.0342 11.5709 25.5517 12.163 26.9655C12.7551 28.3793 13.6225 29.6613 14.7148 30.7366C15.8071 31.812 17.1024 32.6593 18.5253 33.2293C19.9481 33.7993 21.4702 34.0805 23.0028 34.0566C26.0362 34.0092 28.9293 32.771 31.0577 30.6091C33.1861 28.4473 34.3791 25.5352 34.3791 22.5014C34.3791 19.4676 33.1861 16.5555 31.0577 14.3937C28.9293 12.2318 26.0362 10.9936 23.0028 10.9462ZM23.0028 14.9991C24.9922 14.9991 26.9001 15.7893 28.3068 17.196C29.7135 18.6027 30.5038 20.5106 30.5038 22.5C30.5038 24.4894 29.7135 26.3973 28.3068 27.804C26.9001 29.2107 24.9922 30.0009 23.0028 30.0009C21.0134 30.0009 19.1055 29.2107 17.6988 27.804C16.2921 26.3973 15.5019 24.4894 15.5019 22.5C15.5019 20.5106 16.2921 18.6027 17.6988 17.196C19.1055 15.7893 21.0134 14.9991 23.0028 14.9991Z" fill="white"/>
</svg>
