<svg width="46" height="45" viewBox="0 0 46 45" fill="none" xmlns="http://www.w3.org/2000/svg">
<path d="M45.4998 22.6378C45.4998 10.1334 35.4254 -0.00280762 22.9998 -0.00280762C10.5685 4.88271e-06 0.494141 10.1334 0.494141 22.6406C0.494141 33.9384 8.72352 43.3041 19.4785 45.0028V29.1825H13.7691V22.6406H19.4841V17.6484C19.4841 11.9756 22.8451 8.8425 27.9835 8.8425C30.4473 8.8425 33.0207 9.28407 33.0207 9.28407V14.8528H30.1829C27.3901 14.8528 26.5182 16.5994 26.5182 18.3909V22.6378H32.7563L31.7607 29.1797H26.5154V45C37.2704 43.3012 45.4998 33.9356 45.4998 22.6378Z" fill="white"/>
</svg>
