<svg width="40" height="45" viewBox="0 0 40 45" fill="none" xmlns="http://www.w3.org/2000/svg">
<path d="M22.8125 0H28.3813C28.7863 2.01094 29.9 4.54781 31.8547 7.065C33.7672 9.53156 36.3041 11.25 39.6875 11.25V16.875C34.7572 16.875 31.0531 14.5856 28.4375 11.7309V30.9375C28.4375 33.7188 27.6128 36.4376 26.0675 38.7502C24.5223 41.0628 22.3261 42.8652 19.7565 43.9296C17.1869 44.9939 14.3594 45.2724 11.6315 44.7298C8.90369 44.1872 6.39799 42.8479 4.43132 40.8812C2.46464 38.9145 1.12532 36.4088 0.582713 33.681C0.0401086 30.9531 0.318593 28.1256 1.38295 25.556C2.44731 22.9864 4.24973 20.7902 6.5623 19.245C8.87487 17.6998 11.5937 16.875 14.375 16.875V22.5C12.7062 22.5 11.0749 22.9949 9.68738 23.922C8.29984 24.8491 7.21839 26.1669 6.57977 27.7086C5.94116 29.2504 5.77407 30.9469 6.09963 32.5836C6.42519 34.2203 7.22879 35.7237 8.40879 36.9037C9.5888 38.0837 11.0922 38.8873 12.7289 39.2129C14.3656 39.5384 16.0621 39.3714 17.6039 38.7327C19.1457 38.0941 20.4634 37.0127 21.3905 35.6251C22.3177 34.2376 22.8125 32.6063 22.8125 30.9375V0Z" fill="white"/>
</svg>
